<?xml version="1.0" encoding="UTF-8" standalone="no"?>
<!DOCTYPE svg PUBLIC "-//W3C//DTD SVG 1.1//EN" "http://www.w3.org/Graphics/SVG/1.1/DTD/svg11.dtd">
<svg width="100%" height="100%" viewBox="0 0 183 31" version="1.1" xmlns="http://www.w3.org/2000/svg" xmlns:xlink="http://www.w3.org/1999/xlink" xml:space="preserve" xmlns:serif="http://www.serif.com/" style="fill-rule:evenodd;clip-rule:evenodd;stroke-linejoin:round;stroke-miterlimit:2;">
    <g transform="matrix(1,0,0,1,-292.933,-341.475)">
        <g id="Artboard9" transform="matrix(1.68315,0,0,0.782771,-215.406,251.998)">
            <rect x="302.016" y="114.308" width="108.559" height="38.415" style="fill:none;"/>
            <g transform="matrix(0.167901,0,0,0.361029,269.797,20.5573)">
                <path d="M343.26,334.343L343.26,332.392C341.439,334.697 339.525,336.629 337.518,338.19C335.511,339.751 333.318,340.912 330.94,341.674C328.561,342.436 325.849,342.817 322.801,342.817C319.122,342.817 315.824,342.055 312.906,340.531C309.989,339.008 307.731,336.908 306.133,334.232C304.238,330.999 303.29,326.353 303.29,320.296L303.29,290.137C303.29,287.09 303.978,284.814 305.353,283.308C306.728,281.803 308.549,281.051 310.816,281.051C313.12,281.051 314.978,281.813 316.39,283.336C317.803,284.86 318.509,287.127 318.509,290.137L318.509,314.498C318.509,318.029 318.806,320.992 319.401,323.389C319.995,325.787 321.064,327.663 322.606,329.02C324.148,330.376 326.239,331.055 328.877,331.055C331.442,331.055 333.857,330.293 336.124,328.769C338.391,327.245 340.045,325.257 341.086,322.804C341.94,320.649 342.368,315.929 342.368,308.645L342.368,290.137C342.368,287.127 343.074,284.86 344.486,283.336C345.898,281.813 347.738,281.051 350.005,281.051C352.272,281.051 354.093,281.803 355.468,283.308C356.843,284.814 357.531,287.09 357.531,290.137L357.531,334.232C357.531,337.131 356.871,339.305 355.552,340.754C354.232,342.204 352.532,342.928 350.451,342.928C348.37,342.928 346.651,342.176 345.294,340.671C343.938,339.165 343.26,337.056 343.26,334.343Z" style="fill:rgb(27,27,27);fill-rule:nonzero;"/>
                <path d="M386.518,289.468L386.518,291.308C389.194,287.777 392.121,285.185 395.298,283.531C398.476,281.878 402.127,281.051 406.252,281.051C410.266,281.051 413.852,281.924 417.011,283.671C420.17,285.418 422.53,287.889 424.091,291.085C425.094,292.943 425.744,294.95 426.042,297.105C426.339,299.261 426.488,302.011 426.488,305.356L426.488,333.675C426.488,336.722 425.791,339.026 424.397,340.587C423.004,342.148 421.192,342.928 418.962,342.928C416.695,342.928 414.855,342.129 413.443,340.531C412.031,338.933 411.325,336.648 411.325,333.675L411.325,308.31C411.325,303.293 410.628,299.456 409.234,296.799C407.841,294.142 405.063,292.813 400.901,292.813C398.188,292.813 395.716,293.621 393.486,295.238C391.257,296.855 389.621,299.075 388.581,301.9C387.838,304.167 387.466,308.403 387.466,314.61L387.466,333.675C387.466,336.759 386.75,339.073 385.32,340.615C383.889,342.157 382.04,342.928 379.773,342.928C377.58,342.928 375.778,342.129 374.366,340.531C372.953,338.933 372.247,336.648 372.247,333.675L372.247,289.691C372.247,286.793 372.879,284.628 374.143,283.197C375.406,281.766 377.134,281.051 379.327,281.051C380.665,281.051 381.873,281.367 382.95,281.998C384.028,282.63 384.892,283.578 385.543,284.841C386.193,286.105 386.518,287.647 386.518,289.468Z" style="fill:rgb(27,27,27);fill-rule:nonzero;"/>
                <path d="M455.698,344.824L457.092,341.423L438.362,294.262C437.209,291.55 436.633,289.58 436.633,288.353C436.633,287.053 436.968,285.845 437.637,284.73C438.306,283.615 439.226,282.723 440.396,282.054C441.567,281.385 442.784,281.051 444.048,281.051C446.24,281.051 447.894,281.748 449.009,283.141C450.124,284.535 451.109,286.532 451.963,289.134L464.841,326.595L477.049,291.754C478.015,288.929 478.888,286.718 479.669,285.12C480.449,283.522 481.276,282.444 482.15,281.887C483.023,281.33 484.259,281.051 485.857,281.051C487.009,281.051 488.114,281.357 489.174,281.971C490.233,282.584 491.05,283.411 491.626,284.451C492.202,285.492 492.49,286.588 492.49,287.74C492.342,288.446 492.1,289.45 491.766,290.751C491.431,292.051 491.022,293.371 490.539,294.708L470.694,346.663C468.984,351.234 467.312,354.821 465.677,357.422C464.042,360.024 461.877,362.021 459.182,363.415C456.488,364.808 452.855,365.505 448.284,365.505C443.825,365.505 440.48,365.022 438.25,364.056C436.02,363.09 434.905,361.324 434.905,358.76C434.905,357.013 435.435,355.666 436.494,354.718C437.553,353.771 439.123,353.297 441.205,353.297C442.022,353.297 442.821,353.408 443.602,353.631C444.568,353.854 445.404,353.966 446.11,353.966C447.857,353.966 449.232,353.706 450.235,353.185C451.239,352.665 452.14,351.764 452.939,350.482C453.738,349.2 454.658,347.314 455.698,344.824Z" style="fill:rgb(27,27,27);fill-rule:nonzero;"/>
                <path d="M504.364,282.389L506.037,282.389L506.037,273.246C506.037,270.794 506.102,268.87 506.232,267.477C506.362,266.083 506.724,264.885 507.319,263.881C507.913,262.841 508.768,261.995 509.883,261.345C510.998,260.694 512.243,260.369 513.618,260.369C515.55,260.369 517.297,261.094 518.858,262.543C519.899,263.51 520.558,264.689 520.837,266.083C521.116,267.477 521.255,269.456 521.255,272.02L521.255,282.389L526.83,282.389C528.985,282.389 530.63,282.9 531.763,283.922C532.897,284.944 533.463,286.254 533.463,287.852C533.463,289.896 532.655,291.327 531.038,292.144C529.422,292.962 527.108,293.371 524.098,293.371L521.255,293.371L521.255,321.355C521.255,323.733 521.339,325.564 521.506,326.846C521.673,328.128 522.119,329.168 522.844,329.967C523.569,330.766 524.748,331.166 526.384,331.166C527.276,331.166 528.483,331.008 530.007,330.692C531.531,330.376 532.72,330.218 533.575,330.218C534.801,330.218 535.907,330.711 536.892,331.696C537.877,332.68 538.369,333.898 538.369,335.347C538.369,337.8 537.031,339.676 534.355,340.977C531.679,342.278 527.833,342.928 522.816,342.928C518.059,342.928 514.454,342.129 512.001,340.531C509.549,338.933 507.941,336.722 507.179,333.898C506.417,331.073 506.037,327.301 506.037,322.581L506.037,293.371L504.03,293.371C501.837,293.371 500.165,292.85 499.013,291.81C497.861,290.769 497.285,289.45 497.285,287.852C497.285,286.254 497.888,284.944 499.096,283.922C500.304,282.9 502.06,282.389 504.364,282.389Z" style="fill:rgb(27,27,27);fill-rule:nonzero;"/>
            </g>
            <g transform="matrix(0.278326,0,0,0.598472,286.359,-27.7649)">
                <g transform="matrix(1,0,0,1,-166.054,-69.1702)">
                    <path d="M258.476,322.715C266.838,331.574 271.965,343.521 271.965,356.665L258.476,356.665L258.476,322.715Z" style="fill:rgb(255,0,89);"/>
                </g>
                <g transform="matrix(1,0,0,1,-166.054,-69.1702)">
                    <path d="M256.476,324.1L256.476,356.665L223.911,356.665L256.476,324.1Z" style="fill:rgb(42,170,215);"/>
                </g>
                <g transform="matrix(1,0,0,1,-166.054,-69.1702)">
                    <path d="M222.496,355.251L256.761,320.986C247.87,312.445 235.796,307.197 222.496,307.197L222.496,355.251Z" style="fill:rgb(27,27,27);"/>
                </g>
            </g>
            <g transform="matrix(0.580777,0,0,1.24882,134.177,-134.475)">
                <path d="M412.643,220.879L412.643,220.454C412.065,221.116 411.496,221.654 410.934,222.069C410.372,222.484 409.763,222.799 409.106,223.014C408.45,223.229 407.733,223.337 406.956,223.337C405.927,223.337 404.973,223.119 404.097,222.683C403.22,222.247 402.461,221.625 401.82,220.816C401.179,220.008 400.694,219.057 400.363,217.965C400.032,216.873 399.867,215.691 399.867,214.42C399.867,211.732 400.523,209.636 401.836,208.134C403.149,206.633 404.876,205.882 407.019,205.882C408.258,205.882 409.303,206.094 410.154,206.52C411.005,206.945 411.834,207.599 412.643,208.481L412.643,202.132C412.643,201.25 412.819,200.583 413.171,200.132C413.523,199.68 414.024,199.454 414.675,199.454C415.326,199.454 415.828,199.662 416.18,200.076C416.532,200.491 416.708,201.103 416.708,201.912L416.708,220.879C416.708,221.699 416.518,222.313 416.14,222.723C415.762,223.132 415.274,223.337 414.675,223.337C414.087,223.337 413.601,223.124 413.218,222.699C412.835,222.274 412.643,221.667 412.643,220.879ZM404.183,214.562C404.183,215.728 404.364,216.72 404.727,217.54C405.089,218.359 405.585,218.976 406.215,219.391C406.846,219.805 407.534,220.013 408.279,220.013C409.035,220.013 409.726,219.816 410.351,219.422C410.976,219.028 411.475,218.424 411.847,217.61C412.22,216.796 412.407,215.78 412.407,214.562C412.407,213.417 412.22,212.433 411.847,211.608C411.475,210.784 410.97,210.154 410.335,209.718C409.7,209.282 409.004,209.064 408.248,209.064C407.46,209.064 406.756,209.287 406.137,209.733C405.517,210.18 405.037,210.821 404.695,211.655C404.354,212.49 404.183,213.459 404.183,214.562Z" style="fill:rgb(27,27,27);fill-rule:nonzero;"/>
                <path d="M437.125,214.594C437.125,215.875 436.925,217.056 436.526,218.138C436.127,219.22 435.549,220.149 434.793,220.927C434.037,221.704 433.134,222.3 432.083,222.715C431.033,223.13 429.851,223.337 428.539,223.337C427.236,223.337 426.065,223.127 425.026,222.707C423.986,222.287 423.085,221.685 422.324,220.903C421.562,220.121 420.985,219.196 420.591,218.13C420.197,217.064 420,215.885 420,214.594C420,213.291 420.2,212.099 420.599,211.017C420.998,209.936 421.57,209.011 422.316,208.245C423.062,207.478 423.965,206.887 425.026,206.472C426.086,206.058 427.257,205.85 428.539,205.85C429.841,205.85 431.023,206.06 432.083,206.48C433.144,206.9 434.053,207.499 434.809,208.276C435.565,209.053 436.14,209.978 436.534,211.049C436.928,212.12 437.125,213.302 437.125,214.594ZM432.808,214.594C432.808,212.84 432.422,211.474 431.65,210.498C430.878,209.521 429.841,209.032 428.539,209.032C427.698,209.032 426.958,209.25 426.317,209.686C425.677,210.122 425.183,210.765 424.837,211.616C424.49,212.467 424.317,213.459 424.317,214.594C424.317,215.717 424.487,216.699 424.829,217.54C425.17,218.38 425.658,219.023 426.294,219.469C426.929,219.916 427.677,220.139 428.539,220.139C429.841,220.139 430.878,219.648 431.65,218.666C432.422,217.684 432.808,216.326 432.808,214.594Z" style="fill:rgb(27,27,27);fill-rule:nonzero;"/>
                <path d="M455.935,218.012C455.935,218.548 455.774,219.12 455.454,219.729C455.134,220.338 454.645,220.919 453.989,221.47C453.333,222.022 452.506,222.465 451.508,222.801C450.51,223.137 449.386,223.305 448.136,223.305C445.479,223.305 443.405,222.531 441.914,220.982C440.422,219.433 439.677,217.356 439.677,214.751C439.677,212.987 440.018,211.427 440.701,210.072C441.383,208.717 442.371,207.67 443.662,206.929C444.954,206.189 446.498,205.819 448.294,205.819C449.407,205.819 450.429,205.981 451.358,206.307C452.288,206.633 453.075,207.053 453.721,207.567C454.367,208.082 454.861,208.631 455.202,209.214C455.543,209.797 455.714,210.34 455.714,210.844C455.714,211.359 455.522,211.795 455.139,212.152C454.756,212.509 454.291,212.687 453.745,212.687C453.388,212.687 453.091,212.595 452.855,212.412C452.618,212.228 452.353,211.931 452.059,211.522C451.534,210.723 450.985,210.125 450.413,209.726C449.841,209.327 449.113,209.127 448.231,209.127C446.96,209.127 445.936,209.623 445.159,210.616C444.382,211.608 443.993,212.966 443.993,214.688C443.993,215.497 444.093,216.24 444.293,216.917C444.492,217.595 444.781,218.172 445.159,218.65C445.537,219.128 445.994,219.49 446.53,219.737C447.065,219.984 447.653,220.107 448.294,220.107C449.155,220.107 449.893,219.908 450.507,219.509C451.122,219.11 451.665,218.501 452.138,217.681C452.401,217.198 452.684,216.82 452.989,216.547C453.293,216.274 453.666,216.137 454.107,216.137C454.632,216.137 455.068,216.337 455.415,216.736C455.761,217.135 455.935,217.561 455.935,218.012Z" style="fill:rgb(27,27,27);fill-rule:nonzero;"/>
                <path d="M473.532,217.713C473.532,218.9 473.243,219.916 472.665,220.761C472.088,221.607 471.234,222.247 470.105,222.683C468.976,223.119 467.603,223.337 465.986,223.337C464.442,223.337 463.118,223.101 462.016,222.628C460.913,222.155 460.099,221.565 459.574,220.856C459.049,220.147 458.786,219.435 458.786,218.721C458.786,218.248 458.954,217.844 459.29,217.508C459.626,217.172 460.052,217.004 460.566,217.004C461.018,217.004 461.364,217.114 461.606,217.335C461.848,217.555 462.079,217.865 462.299,218.264C462.74,219.031 463.268,219.603 463.882,219.981C464.497,220.359 465.334,220.549 466.395,220.549C467.256,220.549 467.963,220.357 468.514,219.974C469.065,219.59 469.341,219.152 469.341,218.658C469.341,217.902 469.055,217.35 468.483,217.004C467.91,216.657 466.968,216.326 465.655,216.011C464.174,215.644 462.969,215.258 462.039,214.854C461.11,214.449 460.367,213.916 459.81,213.254C459.253,212.593 458.975,211.779 458.975,210.813C458.975,209.951 459.232,209.137 459.747,208.371C460.262,207.604 461.021,206.992 462.024,206.535C463.027,206.079 464.237,205.85 465.655,205.85C466.768,205.85 467.768,205.966 468.656,206.197C469.543,206.428 470.284,206.738 470.877,207.126C471.471,207.515 471.922,207.945 472.232,208.418C472.542,208.891 472.697,209.353 472.697,209.804C472.697,210.298 472.531,210.702 472.201,211.017C471.87,211.333 471.4,211.49 470.791,211.49C470.349,211.49 469.974,211.364 469.664,211.112C469.354,210.86 469,210.482 468.601,209.978C468.275,209.558 467.892,209.221 467.451,208.969C467.01,208.717 466.411,208.591 465.655,208.591C464.878,208.591 464.232,208.757 463.717,209.088C463.202,209.418 462.945,209.831 462.945,210.324C462.945,210.776 463.134,211.146 463.512,211.435C463.89,211.724 464.4,211.963 465.04,212.152C465.681,212.341 466.563,212.572 467.687,212.845C469.021,213.17 470.11,213.559 470.956,214.011C471.801,214.462 472.442,214.995 472.878,215.61C473.314,216.224 473.532,216.925 473.532,217.713Z" style="fill:rgb(27,27,27);fill-rule:nonzero;"/>
            </g>
        </g>
    </g>
</svg>
