<?xml version="1.0" encoding="UTF-8" standalone="no"?>
<!DOCTYPE svg PUBLIC "-//W3C//DTD SVG 1.1//EN" "http://www.w3.org/Graphics/SVG/1.1/DTD/svg11.dtd">
<svg width="100%" height="100%" viewBox="0 0 80 22" version="1.1" xmlns="http://www.w3.org/2000/svg" xmlns:xlink="http://www.w3.org/1999/xlink" xml:space="preserve" xmlns:serif="http://www.serif.com/" style="fill-rule:evenodd;clip-rule:evenodd;stroke-linejoin:round;stroke-miterlimit:2;">
    <g transform="matrix(0.936511,0,0,0.811266,-284.334,-99.4212)">
        <g id="Artboard9">
            <g>
                <g transform="matrix(1.1455,0,0,1.32235,299.131,113.831)">
                    <path d="M34.321,18.463L37.258,10.381L37.307,10.381L40.195,18.463L34.321,18.463ZM36.044,8.293L29.297,25.624L31.651,25.624L33.593,20.405L40.923,20.405L42.816,25.624L45.365,25.624L38.593,8.293L36.044,8.293Z" style="fill:rgb(27,27,27);fill-rule:nonzero;"/>
                    <path d="M57.113,25.624L57.113,13.075L55.05,13.075L55.05,20.162C55.05,20.729 54.973,21.251 54.819,21.728C54.665,22.205 54.435,22.622 54.127,22.978C53.82,23.334 53.435,23.609 52.974,23.803C52.513,23.997 51.967,24.094 51.336,24.094C50.543,24.094 49.92,23.868 49.467,23.415C49.014,22.962 48.787,22.347 48.787,21.57L48.787,13.075L46.724,13.075L46.724,21.327C46.724,22.007 46.793,22.626 46.93,23.184C47.068,23.743 47.307,24.224 47.647,24.628C47.986,25.033 48.431,25.345 48.981,25.563C49.532,25.781 50.219,25.891 51.045,25.891C51.967,25.891 52.768,25.709 53.448,25.345C54.127,24.98 54.685,24.41 55.122,23.633L55.171,23.633L55.171,25.624L57.113,25.624Z" style="fill:rgb(27,27,27);fill-rule:nonzero;"/>
                    <path d="M63.084,13.075L63.084,9.313L61.021,9.313L61.021,13.075L58.885,13.075L58.885,14.895L61.021,14.895L61.021,22.881C61.021,23.463 61.077,23.933 61.19,24.289C61.304,24.645 61.478,24.92 61.712,25.114C61.947,25.308 62.254,25.442 62.635,25.514C63.015,25.587 63.472,25.624 64.006,25.624L65.584,25.624L65.584,23.803L64.637,23.803C64.313,23.803 64.051,23.791 63.848,23.767C63.646,23.743 63.488,23.69 63.375,23.609C63.262,23.528 63.185,23.415 63.144,23.269C63.104,23.124 63.084,22.929 63.084,22.687L63.084,14.895L65.584,14.895L65.584,13.075L63.084,13.075Z" style="fill:rgb(27,27,27);fill-rule:nonzero;"/>
                    <path d="M67.865,8.293L67.865,25.624L69.928,25.624L69.928,18.536C69.928,17.97 70.005,17.448 70.159,16.971C70.313,16.493 70.543,16.077 70.851,15.721C71.158,15.365 71.543,15.089 72.004,14.895C72.465,14.701 73.011,14.604 73.642,14.604C74.435,14.604 75.058,14.831 75.511,15.284C75.964,15.737 76.191,16.352 76.191,17.128L76.191,25.624L78.254,25.624L78.254,17.371C78.254,16.691 78.185,16.073 78.048,15.514C77.91,14.956 77.671,14.475 77.331,14.07C76.992,13.666 76.547,13.35 75.997,13.123C75.446,12.897 74.759,12.784 73.933,12.784C73.561,12.784 73.177,12.824 72.78,12.905C72.384,12.986 72.004,13.111 71.64,13.281C71.276,13.451 70.948,13.67 70.657,13.937C70.365,14.204 70.139,14.531 69.977,14.92L69.928,14.92L69.928,8.293L67.865,8.293Z" style="fill:rgb(27,27,27);fill-rule:nonzero;"/>
                </g>
                <g transform="matrix(0.448382,0,0,0.517605,278.566,0.10333)">
                    <g transform="matrix(1,0,0,1,-166.054,-69.1702)">
                        <path d="M258.476,322.715C266.838,331.574 271.965,343.521 271.965,356.665L258.476,356.665L258.476,322.715Z" style="fill:rgb(255,0,89);"/>
                    </g>
                    <g transform="matrix(1,0,0,1,-166.054,-69.1702)">
                        <path d="M256.476,324.1L256.476,356.665L223.911,356.665L256.476,324.1Z" style="fill:rgb(42,170,215);"/>
                    </g>
                    <g transform="matrix(1,0,0,1,-166.054,-69.1702)">
                        <path d="M222.496,355.251L256.761,320.986C247.87,312.445 235.796,307.197 222.496,307.197L222.496,355.251Z" style="fill:rgb(27,27,27);"/>
                    </g>
                </g>
            </g>
        </g>
    </g>
</svg>
