<?xml version="1.0" encoding="UTF-8" standalone="no"?>
<!DOCTYPE svg PUBLIC "-//W3C//DTD SVG 1.1//EN" "http://www.w3.org/Graphics/SVG/1.1/DTD/svg11.dtd">
<svg width="100%" height="100%" viewBox="0 0 99 31" version="1.1" xmlns="http://www.w3.org/2000/svg" xmlns:xlink="http://www.w3.org/1999/xlink" xml:space="preserve" xmlns:serif="http://www.serif.com/" style="fill-rule:evenodd;clip-rule:evenodd;stroke-linejoin:round;stroke-miterlimit:2;">
    <g transform="matrix(1,0,0,1,-395.834,-108.691)">
        <g id="Artboard9" transform="matrix(0.903617,0,0,0.782771,122.928,19.2139)">
            <rect x="302.016" y="114.308" width="108.559" height="38.415" style="fill:none;"/>
            <g transform="matrix(0.312747,0,0,0.361029,242.002,20.5573)">
                <path d="M343.26,334.343L343.26,332.392C341.439,334.697 339.525,336.629 337.518,338.19C335.511,339.751 333.318,340.912 330.94,341.674C328.561,342.436 325.849,342.817 322.801,342.817C319.122,342.817 315.824,342.055 312.906,340.531C309.989,339.008 307.731,336.908 306.133,334.232C304.238,330.999 303.29,326.353 303.29,320.296L303.29,290.137C303.29,287.09 303.978,284.814 305.353,283.308C306.728,281.803 308.549,281.051 310.816,281.051C313.12,281.051 314.978,281.813 316.39,283.336C317.803,284.86 318.509,287.127 318.509,290.137L318.509,314.498C318.509,318.029 318.806,320.992 319.401,323.389C319.995,325.787 321.064,327.663 322.606,329.02C324.148,330.376 326.239,331.055 328.877,331.055C331.442,331.055 333.857,330.293 336.124,328.769C338.391,327.245 340.045,325.257 341.086,322.804C341.94,320.649 342.368,315.929 342.368,308.645L342.368,290.137C342.368,287.127 343.074,284.86 344.486,283.336C345.898,281.813 347.738,281.051 350.005,281.051C352.272,281.051 354.093,281.803 355.468,283.308C356.843,284.814 357.531,287.09 357.531,290.137L357.531,334.232C357.531,337.131 356.871,339.305 355.552,340.754C354.232,342.204 352.532,342.928 350.451,342.928C348.37,342.928 346.651,342.176 345.294,340.671C343.938,339.165 343.26,337.056 343.26,334.343Z" style="fill:rgb(27,27,27);fill-rule:nonzero;"/>
                <path d="M386.518,289.468L386.518,291.308C389.194,287.777 392.121,285.185 395.298,283.531C398.476,281.878 402.127,281.051 406.252,281.051C410.266,281.051 413.852,281.924 417.011,283.671C420.17,285.418 422.53,287.889 424.091,291.085C425.094,292.943 425.744,294.95 426.042,297.105C426.339,299.261 426.488,302.011 426.488,305.356L426.488,333.675C426.488,336.722 425.791,339.026 424.397,340.587C423.004,342.148 421.192,342.928 418.962,342.928C416.695,342.928 414.855,342.129 413.443,340.531C412.031,338.933 411.325,336.648 411.325,333.675L411.325,308.31C411.325,303.293 410.628,299.456 409.234,296.799C407.841,294.142 405.063,292.813 400.901,292.813C398.188,292.813 395.716,293.621 393.486,295.238C391.257,296.855 389.621,299.075 388.581,301.9C387.838,304.167 387.466,308.403 387.466,314.61L387.466,333.675C387.466,336.759 386.75,339.073 385.32,340.615C383.889,342.157 382.04,342.928 379.773,342.928C377.58,342.928 375.778,342.129 374.366,340.531C372.953,338.933 372.247,336.648 372.247,333.675L372.247,289.691C372.247,286.793 372.879,284.628 374.143,283.197C375.406,281.766 377.134,281.051 379.327,281.051C380.665,281.051 381.873,281.367 382.95,281.998C384.028,282.63 384.892,283.578 385.543,284.841C386.193,286.105 386.518,287.647 386.518,289.468Z" style="fill:rgb(27,27,27);fill-rule:nonzero;"/>
                <path d="M455.698,344.824L457.092,341.423L438.362,294.262C437.209,291.55 436.633,289.58 436.633,288.353C436.633,287.053 436.968,285.845 437.637,284.73C438.306,283.615 439.226,282.723 440.396,282.054C441.567,281.385 442.784,281.051 444.048,281.051C446.24,281.051 447.894,281.748 449.009,283.141C450.124,284.535 451.109,286.532 451.963,289.134L464.841,326.595L477.049,291.754C478.015,288.929 478.888,286.718 479.669,285.12C480.449,283.522 481.276,282.444 482.15,281.887C483.023,281.33 484.259,281.051 485.857,281.051C487.009,281.051 488.114,281.357 489.174,281.971C490.233,282.584 491.05,283.411 491.626,284.451C492.202,285.492 492.49,286.588 492.49,287.74C492.342,288.446 492.1,289.45 491.766,290.751C491.431,292.051 491.022,293.371 490.539,294.708L470.694,346.663C468.984,351.234 467.312,354.821 465.677,357.422C464.042,360.024 461.877,362.021 459.182,363.415C456.488,364.808 452.855,365.505 448.284,365.505C443.825,365.505 440.48,365.022 438.25,364.056C436.02,363.09 434.905,361.324 434.905,358.76C434.905,357.013 435.435,355.666 436.494,354.718C437.553,353.771 439.123,353.297 441.205,353.297C442.022,353.297 442.821,353.408 443.602,353.631C444.568,353.854 445.404,353.966 446.11,353.966C447.857,353.966 449.232,353.706 450.235,353.185C451.239,352.665 452.14,351.764 452.939,350.482C453.738,349.2 454.658,347.314 455.698,344.824Z" style="fill:rgb(27,27,27);fill-rule:nonzero;"/>
                <path d="M504.364,282.389L506.037,282.389L506.037,273.246C506.037,270.794 506.102,268.87 506.232,267.477C506.362,266.083 506.724,264.885 507.319,263.881C507.913,262.841 508.768,261.995 509.883,261.345C510.998,260.694 512.243,260.369 513.618,260.369C515.55,260.369 517.297,261.094 518.858,262.543C519.899,263.51 520.558,264.689 520.837,266.083C521.116,267.477 521.255,269.456 521.255,272.02L521.255,282.389L526.83,282.389C528.985,282.389 530.63,282.9 531.763,283.922C532.897,284.944 533.463,286.254 533.463,287.852C533.463,289.896 532.655,291.327 531.038,292.144C529.422,292.962 527.108,293.371 524.098,293.371L521.255,293.371L521.255,321.355C521.255,323.733 521.339,325.564 521.506,326.846C521.673,328.128 522.119,329.168 522.844,329.967C523.569,330.766 524.748,331.166 526.384,331.166C527.276,331.166 528.483,331.008 530.007,330.692C531.531,330.376 532.72,330.218 533.575,330.218C534.801,330.218 535.907,330.711 536.892,331.696C537.877,332.68 538.369,333.898 538.369,335.347C538.369,337.8 537.031,339.676 534.355,340.977C531.679,342.278 527.833,342.928 522.816,342.928C518.059,342.928 514.454,342.129 512.001,340.531C509.549,338.933 507.941,336.722 507.179,333.898C506.417,331.073 506.037,327.301 506.037,322.581L506.037,293.371L504.03,293.371C501.837,293.371 500.165,292.85 499.013,291.81C497.861,290.769 497.285,289.45 497.285,287.852C497.285,286.254 497.888,284.944 499.096,283.922C500.304,282.9 502.06,282.389 504.364,282.389Z" style="fill:rgb(27,27,27);fill-rule:nonzero;"/>
            </g>
            <g transform="matrix(0.518434,0,0,0.598472,272.852,-27.7649)">
                <g transform="matrix(1,0,0,1,-166.054,-69.1702)">
                    <path d="M258.476,322.715C266.838,331.574 271.965,343.521 271.965,356.665L258.476,356.665L258.476,322.715Z" style="fill:rgb(27,27,27);"/>
                </g>
                <g transform="matrix(1,0,0,1,-166.054,-69.1702)">
                    <path d="M256.476,324.1L256.476,356.665L223.911,356.665L256.476,324.1Z" style="fill:rgb(27,27,27);"/>
                </g>
                <g transform="matrix(1,0,0,1,-166.054,-69.1702)">
                    <path d="M222.496,355.251L256.761,320.986C247.87,312.445 235.796,307.197 222.496,307.197L222.496,355.251Z" style="fill:rgb(27,27,27);"/>
                </g>
            </g>
        </g>
    </g>
</svg>
