<?xml version="1.0" encoding="UTF-8" standalone="no"?>
<!DOCTYPE svg PUBLIC "-//W3C//DTD SVG 1.1//EN" "http://www.w3.org/Graphics/SVG/1.1/DTD/svg11.dtd">
<svg width="100%" height="100%" viewBox="0 0 65 74" version="1.1" xmlns="http://www.w3.org/2000/svg" xmlns:xlink="http://www.w3.org/1999/xlink" xml:space="preserve" xmlns:serif="http://www.serif.com/" style="fill-rule:evenodd;clip-rule:evenodd;stroke-linejoin:round;stroke-miterlimit:2;">
    <g transform="matrix(1,0,0,1,-6.57016,-537.061)">
        <g id="Artboard2">
            <rect x="2.07" y="537.061" width="73.158" height="73.158" style="fill:none;"/>
            <g transform="matrix(1,-0,-0,1,6.57016,537.061)">
            </g>
            <g transform="matrix(1,0,0,1,-0.994344,0.254123)">
                <g transform="matrix(1.63133,0,0,1.63133,-17.4025,-541.606)">
                    <path d="M15.32,686.171C15.32,697.165 24.232,706.078 35.227,706.078C46.222,706.078 55.134,697.165 55.134,686.171L15.32,686.171Z" style="fill:rgb(27,27,27);"/>
                </g>
                <g transform="matrix(1.49914,0,0,1.49914,-17.8404,-287.574)">
                    <g transform="matrix(1,0,0,1,0.0701575,-93.6415)">
                        <path d="M48.278,668.517L49.107,643.921L55.958,665.051L59.396,668.517L48.278,668.517Z" style="fill:rgb(255,0,89);"/>
                    </g>
                    <g transform="matrix(1,0,0,1,0.0701575,-93.6415)">
                        <path d="M46.533,668.517L22,668.517L22,653.517C30.178,662.464 38.355,664.147 46.533,653.517L46.533,668.517Z" style="fill:rgb(159,230,255);"/>
                    </g>
                    <g transform="matrix(1,0,0,1,0.0701575,-93.6415)">
                        <path d="M35.343,668.517L26.8,668.517L26.789,650.513L35.367,650.513L35.343,668.517Z" style="fill:rgb(42,170,215);"/>
                    </g>
                    <g transform="matrix(1,0,0,1,0.0701575,-93.6415)">
                        <path d="M28.412,668.517L17.36,668.517L17.347,665.82L28.441,665.82L28.412,668.517Z" style="fill:rgb(42,170,215);"/>
                    </g>
                </g>
            </g>
        </g>
    </g>
</svg>
