<?xml version="1.0" encoding="UTF-8" standalone="no"?>
<!DOCTYPE svg PUBLIC "-//W3C//DTD SVG 1.1//EN" "http://www.w3.org/Graphics/SVG/1.1/DTD/svg11.dtd">
<svg width="100%" height="100%" viewBox="0 0 500 500" version="1.1" xmlns="http://www.w3.org/2000/svg" xmlns:xlink="http://www.w3.org/1999/xlink" xml:space="preserve" xmlns:serif="http://www.serif.com/" style="fill-rule:evenodd;clip-rule:evenodd;stroke-linejoin:round;stroke-miterlimit:2;">
    <rect id="ArtBoard1" x="0" y="0" width="500" height="500" style="fill:none;"/>
    <g id="ArtBoard11" serif:id="ArtBoard1">
        <g transform="matrix(11.6177,0,0,11.6177,-205.796,-6412.68)">
            <g transform="matrix(0.796634,0,-5.55112e-17,0.836892,-273.439,50.6344)">
                <ellipse cx="382.029" cy="632.834" rx="16.147" ry="15.357" style="fill:rgb(42,170,215);"/>
            </g>
            <g transform="matrix(0.796634,0,-5.55112e-17,0.836892,-256.769,50.7265)">
                <ellipse cx="382.029" cy="632.834" rx="16.147" ry="15.357" style="fill:rgb(255,0,89);"/>
            </g>
            <g transform="matrix(1,0,0,1,-454.827,-48.0755)">
                <path d="M494.114,618.584C496.853,620.942 498.589,624.432 498.589,628.324C498.589,632.267 496.807,635.798 494.006,638.155C491.267,635.798 489.532,632.308 489.532,628.416C489.532,624.473 491.313,620.942 494.114,618.584Z" style="fill:rgb(195,132,203);"/>
            </g>
            <g transform="matrix(0.796634,0,-5.55112e-17,0.836892,-265.795,37.0337)">
                <ellipse cx="382.029" cy="632.834" rx="16.147" ry="15.357" style="fill:white;"/>
            </g>
            <g transform="matrix(1,0,0,1,-454.827,-48.0755)">
                <path d="M489.608,627.016C490.307,620.58 495.77,615.564 502.396,615.564C503.704,615.564 504.967,615.76 506.157,616.123C505.458,622.559 499.995,627.575 493.369,627.575C492.061,627.575 490.798,627.379 489.608,627.016Z" style="fill:rgb(238,133,170);"/>
            </g>
            <g transform="matrix(1,0,0,1,-454.827,-48.0755)">
                <path d="M480.631,616.521C482.194,615.846 483.916,615.472 485.725,615.472C492.214,615.472 497.587,620.283 498.464,626.526C496.901,627.201 495.178,627.575 493.369,627.575C486.88,627.575 481.507,622.764 480.631,616.521Z" style="fill:rgb(159,230,255);"/>
            </g>
            <g transform="matrix(1,0,0,1,-454.827,-48.0755)">
                <path d="M494.114,618.584C496.424,620.572 498.02,623.366 498.464,626.526C496.901,627.201 495.178,627.575 493.369,627.575C492.061,627.575 490.798,627.379 489.608,627.016C489.974,623.643 491.649,620.66 494.114,618.584Z"/>
            </g>
        </g>
    </g>
</svg>
